<?xml version="1.0" encoding="utf-8"?>
<!-- Generator: Adobe Illustrator 15.1.0, SVG Export Plug-In  -->
<!DOCTYPE svg PUBLIC "-//W3C//DTD SVG 1.1//EN" "http://www.w3.org/Graphics/SVG/1.1/DTD/svg11.dtd" [
	<!ENTITY ns_flows "http://ns.adobe.com/Flows/1.0/">
]>
<svg version="1.1"
	 xmlns="http://www.w3.org/2000/svg" xmlns:xlink="http://www.w3.org/1999/xlink" xmlns:a="http://ns.adobe.com/AdobeSVGViewerExtensions/3.0/"
	 x="0px" y="0px" width="26px" height="30px" viewBox="0 0 26 30" enable-background="new 0 0 26 30" xml:space="preserve">
<defs>
</defs>
<path d="M20.226,6.847l-6.524-6.523C13.494,0.115,13.213,0,12.928,0c-0.293,0-0.574,0.115-0.775,0.323L5.629,6.847
	c-0.428,0.427-0.428,1.122,0,1.556c0.427,0.427,1.12,0.427,1.555,0l4.646-4.652v18.938c0,0.604,0.494,1.098,1.099,1.098
	c0.603,0,1.097-0.494,1.097-1.098V3.75l4.652,4.652c0.214,0.213,0.493,0.323,0.774,0.323c0.28,0,0.562-0.11,0.774-0.323
	C20.652,7.975,20.652,7.28,20.226,6.847"/>
<path d="M24.756,20.512c-0.604,0-1.098,0.494-1.098,1.097v6.196H2.195v-6.196c0-0.603-0.494-1.097-1.098-1.097S0,21.006,0,21.608
	v7.293C0,29.506,0.494,30,1.098,30h23.658c0.61,0,1.098-0.494,1.098-1.099v-7.293C25.854,21.006,25.36,20.512,24.756,20.512"/>
</svg>
